# xmcd
#
# Track frame offsets:
#	150
#	13395
#	32280
#	45355
#	65965
#	80110
#	98510
#	115310
#
# Disc length: 1785 seconds
#
# Revision: 1
# Processed by: cddbd v1.5.2PL0 Copyright (c) Steve Scherf et al.
# Submitted via: EasyCDDAExtractor 7.0.3.1
#
DISCID=6206f708
DTITLE=Julie Ingram - Long Shot Girl
DYEAR=1999
DGENRE=Country
TTITLE0=Bottom Line with Rob Dixon
TTITLE1=Please Forgive Me
TTITLE2=Rear View Mirror
TTITLE3=American Dream
TTITLE4=Long Shot Girl
TTITLE5=One More Try
TTITLE6=I'm A Natural
TTITLE7=Yellow Roses
EXTD=
EXTT0=
EXTT1=
EXTT2=
EXTT3=
EXTT4=
EXTT5=
EXTT6=
EXTT7=
PLAYORDER=
